<svg class="lds-flask" width="100%" height="100%" xmlns="http://www.w3.org/2000/svg" xmlns:xlink="http://www.w3.org/1999/xlink" viewBox="0 0 100 100" preserveAspectRatio="xMidYMid"><defs>
<clipPath id="lds-flask-cpid-fc602a6c1ac53" clipPathUnits="userSpaceOnUse">
<rect x="0" y="50" width="100" height="50"></rect>
</clipPath>
<pattern id="lds-flask-patid-afbd2432600ca" patternUnits="userSpaceOnUse" x="0" y="0" width="100" height="100">
<rect x="0" y="0" width="100" height="100" fill="#2f241e"></rect><circle cx="28" cy="0" r="3" fill="#f6a824" transform="translate(0 28.0405)">
<animateTransform attributeName="transform" type="translate" values="0 116;0 -16" keyTimes="0;1" dur="2s" begin="0s" repeatCount="indefinite"></animateTransform>
</circle><circle cx="5" cy="0" r="4" fill="#f6a824" transform="translate(0 68.9153)">
<animateTransform attributeName="transform" type="translate" values="0 151;0 -51" keyTimes="0;1" dur="2s" begin="-1.48s" repeatCount="indefinite"></animateTransform>
</circle><circle cx="3" cy="0" r="3" fill="#f6a824" transform="translate(0 30.6004)">
<animateTransform attributeName="transform" type="translate" values="0 105;0 -5" keyTimes="0;1" dur="2s" begin="-0.02s" repeatCount="indefinite"></animateTransform>
</circle><circle cx="15" cy="0" r="2" fill="#f6a824" transform="translate(0 102.364)">
<animateTransform attributeName="transform" type="translate" values="0 122;0 -22" keyTimes="0;1" dur="2s" begin="-0.94s" repeatCount="indefinite"></animateTransform>
</circle><circle cx="18" cy="0" r="3" fill="#f6a824" transform="translate(0 7.91688)">
<animateTransform attributeName="transform" type="translate" values="0 121;0 -21" keyTimes="0;1" dur="2s" begin="-0.26s" repeatCount="indefinite"></animateTransform>
</circle><circle cx="54" cy="0" r="2" fill="#f6a824" transform="translate(0 82.1751)">
<animateTransform attributeName="transform" type="translate" values="0 129;0 -29" keyTimes="0;1" dur="2s" begin="-1.26s" repeatCount="indefinite"></animateTransform>
</circle><circle cx="84" cy="0" r="3" fill="#f6a824" transform="translate(0 7.5732)">
<animateTransform attributeName="transform" type="translate" values="0 115;0 -15" keyTimes="0;1" dur="2s" begin="-0.32s" repeatCount="indefinite"></animateTransform>
</circle><circle cx="26" cy="0" r="3" fill="#f6a824" transform="translate(0 44.546)">
<animateTransform attributeName="transform" type="translate" values="0 125;0 -25" keyTimes="0;1" dur="2s" begin="-1.74s" repeatCount="indefinite"></animateTransform>
</circle><circle cx="40" cy="0" r="3" fill="#f6a824" transform="translate(0 127.95)">
<animateTransform attributeName="transform" type="translate" values="0 142;0 -42" keyTimes="0;1" dur="2s" begin="-0.82s" repeatCount="indefinite"></animateTransform>
</circle><circle cx="89" cy="0" r="3" fill="#f6a824" transform="translate(0 99.8025)">
<animateTransform attributeName="transform" type="translate" values="0 141;0 -41" keyTimes="0;1" dur="2s" begin="-1.12s" repeatCount="indefinite"></animateTransform>
</circle><circle cx="61" cy="0" r="2" fill="#f6a824" transform="translate(0 -15.6594)">
<animateTransform attributeName="transform" type="translate" values="0 127;0 -27" keyTimes="0;1" dur="2s" begin="-0.52s" repeatCount="indefinite"></animateTransform>
</circle><circle cx="25" cy="0" r="4" fill="#f6a824" transform="translate(0 -4.57408)">
<animateTransform attributeName="transform" type="translate" values="0 114;0 -14" keyTimes="0;1" dur="2s" begin="-0.52s" repeatCount="indefinite"></animateTransform>
</circle><circle cx="89" cy="0" r="2" fill="#f6a824" transform="translate(0 72.6458)">
<animateTransform attributeName="transform" type="translate" values="0 103;0 -3" keyTimes="0;1" dur="2s" begin="-1.24s" repeatCount="indefinite"></animateTransform>
</circle><circle cx="12" cy="0" r="3" fill="#f6a824" transform="translate(0 31.1823)">
<animateTransform attributeName="transform" type="translate" values="0 119;0 -19" keyTimes="0;1" dur="2s" begin="-1.94s" repeatCount="indefinite"></animateTransform>
</circle><circle cx="80" cy="0" r="2" fill="#f6a824" transform="translate(0 -14.1194)">
<animateTransform attributeName="transform" type="translate" values="0 127;0 -27" keyTimes="0;1" dur="2s" begin="-0.5s" repeatCount="indefinite"></animateTransform>
</circle><circle cx="97" cy="0" r="3" fill="#f6a824" transform="translate(0 26.2333)">
<animateTransform attributeName="transform" type="translate" values="0 126;0 -26" keyTimes="0;1" dur="2s" begin="-1.98s" repeatCount="indefinite"></animateTransform>
</circle><circle cx="51" cy="0" r="4" fill="#f6a824" transform="translate(0 8.5096)">
<animateTransform attributeName="transform" type="translate" values="0 120;0 -20" keyTimes="0;1" dur="2s" begin="-0.26s" repeatCount="indefinite"></animateTransform>
</circle><circle cx="81" cy="0" r="3" fill="#f6a824" transform="translate(0 13.9186)">
<animateTransform attributeName="transform" type="translate" values="0 113;0 -13" keyTimes="0;1" dur="2s" begin="-0.24s" repeatCount="indefinite"></animateTransform>
</circle><circle cx="6" cy="0" r="4" fill="#f6a824" transform="translate(0 91.597)">
<animateTransform attributeName="transform" type="translate" values="0 132;0 -32" keyTimes="0;1" dur="2s" begin="-1.16s" repeatCount="indefinite"></animateTransform>
</circle><circle cx="84" cy="0" r="3" fill="#f6a824" transform="translate(0 103.773)">
<animateTransform attributeName="transform" type="translate" values="0 115;0 -15" keyTimes="0;1" dur="2s" begin="-0.84s" repeatCount="indefinite"></animateTransform>
</circle><circle cx="83" cy="0" r="3" fill="#f6a824" transform="translate(0 46.9243)">
<animateTransform attributeName="transform" type="translate" values="0 144;0 -44" keyTimes="0;1" dur="2s" begin="-1.7s" repeatCount="indefinite"></animateTransform>
</circle><circle cx="36" cy="0" r="3" fill="#f6a824" transform="translate(0 3.83864)">
<animateTransform attributeName="transform" type="translate" values="0 113;0 -13" keyTimes="0;1" dur="2s" begin="-0.4s" repeatCount="indefinite"></animateTransform>
</circle><circle cx="72" cy="0" r="3" fill="#f6a824" transform="translate(0 -8.52664)">
<animateTransform attributeName="transform" type="translate" values="0 137;0 -37" keyTimes="0;1" dur="2s" begin="-0.34s" repeatCount="indefinite"></animateTransform>
</circle><circle cx="96" cy="0" r="2" fill="#f6a824" transform="translate(0 -1.1632)">
<animateTransform attributeName="transform" type="translate" values="0 110;0 -10" keyTimes="0;1" dur="2s" begin="-0.52s" repeatCount="indefinite"></animateTransform>
</circle><circle cx="26" cy="0" r="3" fill="#f6a824" transform="translate(0 95.317)">
<animateTransform attributeName="transform" type="translate" values="0 143;0 -43" keyTimes="0;1" dur="2s" begin="-1.18s" repeatCount="indefinite"></animateTransform>
</circle><circle cx="51" cy="0" r="3" fill="#f6a824" transform="translate(0 67.6188)">
<animateTransform attributeName="transform" type="translate" values="0 135;0 -35" keyTimes="0;1" dur="2s" begin="-1.46s" repeatCount="indefinite"></animateTransform>
</circle><circle cx="24" cy="0" r="3" fill="#f6a824" transform="translate(0 15.5933)">
<animateTransform attributeName="transform" type="translate" values="0 126;0 -26" keyTimes="0;1" dur="2s" begin="-0.12s" repeatCount="indefinite"></animateTransform>
</circle><circle cx="76" cy="0" r="4" fill="#f6a824" transform="translate(0 76.335)">
<animateTransform attributeName="transform" type="translate" values="0 118;0 -18" keyTimes="0;1" dur="2s" begin="-1.28s" repeatCount="indefinite"></animateTransform>
</circle><circle cx="35" cy="0" r="4" fill="#f6a824" transform="translate(0 -22.1049)">
<animateTransform attributeName="transform" type="translate" values="0 129;0 -29" keyTimes="0;1" dur="2s" begin="-0.58s" repeatCount="indefinite"></animateTransform>
</circle><circle cx="18" cy="0" r="3" fill="#f6a824" transform="translate(0 109.55)">
<animateTransform attributeName="transform" type="translate" values="0 142;0 -42" keyTimes="0;1" dur="2s" begin="-1.02s" repeatCount="indefinite"></animateTransform>
</circle><circle cx="27" cy="0" r="3" fill="#f6a824" transform="translate(0 -11.2175)">
<animateTransform attributeName="transform" type="translate" values="0 141;0 -41" keyTimes="0;1" dur="2s" begin="-0.34s" repeatCount="indefinite"></animateTransform>
</circle><circle cx="36" cy="0" r="3" fill="#f6a824" transform="translate(0 80.055)">
<animateTransform attributeName="transform" type="translate" values="0 107;0 -7" keyTimes="0;1" dur="2s" begin="-1.14s" repeatCount="indefinite"></animateTransform>
</circle><circle cx="94" cy="0" r="4" fill="#f6a824" transform="translate(0 31.2987)">
<animateTransform attributeName="transform" type="translate" values="0 124;0 -24" keyTimes="0;1" dur="2s" begin="-1.92s" repeatCount="indefinite"></animateTransform>
</circle><circle cx="31" cy="0" r="4" fill="#f6a824" transform="translate(0 45.5641)">
<animateTransform attributeName="transform" type="translate" values="0 111;0 -11" keyTimes="0;1" dur="2s" begin="-1.74s" repeatCount="indefinite"></animateTransform>
</circle><circle cx="62" cy="0" r="3" fill="#f6a824" transform="translate(0 0.369675)">
<animateTransform attributeName="transform" type="translate" values="0 131;0 -31" keyTimes="0;1" dur="2s" begin="-0.28s" repeatCount="indefinite"></animateTransform>
</circle><circle cx="62" cy="0" r="3" fill="#f6a824" transform="translate(0 9.12952)">
<animateTransform attributeName="transform" type="translate" values="0 109;0 -9" keyTimes="0;1" dur="2s" begin="-0.36s" repeatCount="indefinite"></animateTransform>
</circle><circle cx="76" cy="0" r="2" fill="#f6a824" transform="translate(0 116.935)">
<animateTransform attributeName="transform" type="translate" values="0 129;0 -29" keyTimes="0;1" dur="2s" begin="-0.82s" repeatCount="indefinite"></animateTransform>
</circle><circle cx="32" cy="0" r="3" fill="#f6a824" transform="translate(0 15.6222)">
<animateTransform attributeName="transform" type="translate" values="0 108;0 -8" keyTimes="0;1" dur="2s" begin="-0.26s" repeatCount="indefinite"></animateTransform>
</circle><circle cx="70" cy="0" r="3" fill="#f6a824" transform="translate(0 17.355)">
<animateTransform attributeName="transform" type="translate" values="0 107;0 -7" keyTimes="0;1" dur="2s" begin="-0.24s" repeatCount="indefinite"></animateTransform>
</circle><circle cx="60" cy="0" r="2" fill="#f6a824" transform="translate(0 46.6953)">
<animateTransform attributeName="transform" type="translate" values="0 151;0 -51" keyTimes="0;1" dur="2s" begin="-1.7s" repeatCount="indefinite"></animateTransform>
</circle><circle cx="43" cy="0" r="2" fill="#f6a824" transform="translate(0 -34.3812)">
<animateTransform attributeName="transform" type="translate" values="0 135;0 -35" keyTimes="0;1" dur="2s" begin="-0.66s" repeatCount="indefinite"></animateTransform>
</circle><circle cx="62" cy="0" r="2" fill="#f6a824" transform="translate(0 -13.9666)">
<animateTransform attributeName="transform" type="translate" values="0 148;0 -48" keyTimes="0;1" dur="2s" begin="-0.32s" repeatCount="indefinite"></animateTransform>
</circle><circle cx="35" cy="0" r="4" fill="#f6a824" transform="translate(0 -12.6393)">
<animateTransform attributeName="transform" type="translate" values="0 149;0 -49" keyTimes="0;1" dur="2s" begin="-0.3s" repeatCount="indefinite"></animateTransform>
</circle><circle cx="92" cy="0" r="3" fill="#f6a824" transform="translate(0 -3.7812)">
<animateTransform attributeName="transform" type="translate" values="0 135;0 -35" keyTimes="0;1" dur="2s" begin="-0.3s" repeatCount="indefinite"></animateTransform>
</circle><circle cx="70" cy="0" r="3" fill="#f6a824" transform="translate(0 -41.4066)">
<animateTransform attributeName="transform" type="translate" values="0 148;0 -48" keyTimes="0;1" dur="2s" begin="-0.6s" repeatCount="indefinite"></animateTransform>
</circle><circle cx="36" cy="0" r="2" fill="#f6a824" transform="translate(0 10.8004)">
<animateTransform attributeName="transform" type="translate" values="0 105;0 -5" keyTimes="0;1" dur="2s" begin="-0.38s" repeatCount="indefinite"></animateTransform>
</circle><circle cx="41" cy="0" r="2" fill="#f6a824" transform="translate(0 5.7096)">
<animateTransform attributeName="transform" type="translate" values="0 120;0 -20" keyTimes="0;1" dur="2s" begin="-0.3s" repeatCount="indefinite"></animateTransform>
</circle><circle cx="64" cy="0" r="4" fill="#f6a824" transform="translate(0 88.0078)">
<animateTransform attributeName="transform" type="translate" values="0 117;0 -17" keyTimes="0;1" dur="2s" begin="-1.1s" repeatCount="indefinite"></animateTransform>
</circle><circle cx="25" cy="0" r="2" fill="#f6a824" transform="translate(0 72.4004)">
<animateTransform attributeName="transform" type="translate" values="0 105;0 -5" keyTimes="0;1" dur="2s" begin="-1.26s" repeatCount="indefinite"></animateTransform>
</circle><circle cx="12" cy="0" r="4" fill="#f6a824" transform="translate(0 67.0425)">
<animateTransform attributeName="transform" type="translate" values="0 141;0 -41" keyTimes="0;1" dur="2s" begin="-1.48s" repeatCount="indefinite"></animateTransform>
</circle>      </pattern></defs>

      <path fill="url(#lds-flask-patid-afbd2432600ca)" clip-path="url(#lds-flask-cpid-fc602a6c1ac53)" d="M59,37.3V18.9c3-0.8,5.1-3.6,5.1-6.8C64.1,8.2,61,5,57.1,5H42.9c-3.9,0-7.1,3.2-7.1,7.1c0,3.2,2.2,6,5.1,6.8v18.4c-11.9,3.8-20.6,15-20.6,28.2C20.4,81.8,33.7,95,50,95s29.6-13.2,29.6-29.6C79.6,52.2,70.9,41.1,59,37.3z"></path>

      <path fill="none" stroke="#6b656a" stroke-width="5" d="M59,37.3V18.9c3-0.8,5.1-3.6,5.1-6.8C64.1,8.2,61,5,57.1,5H42.9c-3.9,0-7.1,3.2-7.1,7.1c0,3.2,2.2,6,5.1,6.8v18.4c-11.9,3.8-20.6,15-20.6,28.2C20.4,81.8,33.7,95,50,95s29.6-13.2,29.6-29.6C79.6,52.2,70.9,41.1,59,37.3z"></path>
</svg>