<svg width="100%" height="100%" xmlns="http://www.w3.org/2000/svg" viewBox="0 0 100 100" preserveAspectRatio="xMidYMid" class="lds-zigzag"><defs><clipPath id="zigzag-clip-db26ee8fb1df7"><rect x="20" y="0" width="60" height="100"></rect></clipPath></defs><path fill="none" stroke="#f6a824" stroke-width="6" stroke-linecap="round" stroke-linejoin="round" stroke-miterlimit="10" clip-path="url(#zigzag-clip-db26ee8fb1df7)" d="M90,76.7V28.3c0-2.7-2.2-5-5-5h-3.4c-2.7,0-5,2.2-5,5v43.4c0,2.7-2.2,5-5,5h-3.4c-2.7,0-5-2.2-5-5V28.3c0-2.7-2.2-5-5-5H55 c-2.7,0-5,2.2-5,5v43.4c0,2.7-2.2,5-5,5h-3.4c-2.7,0-5-2.2-5-5V28.3c0-2.7-2.2-5-5-5h-3.4c-2.7,0-5,2.2-5,5v43.4c0,2.7-2.2,5-5,5H15 c-2.7,0-5-2.2-5-5V23.3" transform="translate(-3.94001 0)"><animateTransform attributeName="transform" type="translate" calcMode="linear" values="-20 0;7 0" keyTimes="0;1" dur="0.7s" begin="0s" repeatCount="indefinite"></animateTransform><animate attributeName="stroke-dasharray" calcMode="linear" values="0 72 125 232;0 197 125 233" keyTimes="0;1" dur="0.7" begin="0s" repeatCount="indefinite"></animate></path></svg>