<?xml version="1.0" encoding="UTF-8" standalone="no"?>
<!-- Created with Inkscape (http://www.inkscape.org/) -->

<svg
   xmlns:dc="http://purl.org/dc/elements/1.1/"
   xmlns:cc="http://creativecommons.org/ns#"
   xmlns:rdf="http://www.w3.org/1999/02/22-rdf-syntax-ns#"
   xmlns:svg="http://www.w3.org/2000/svg"
   xmlns="http://www.w3.org/2000/svg"
   xmlns:sodipodi="http://sodipodi.sourceforge.net/DTD/sodipodi-0.dtd"
   xmlns:inkscape="http://www.inkscape.org/namespaces/inkscape"
   width="43.969017mm"
   height="50.751873mm"
   viewBox="0 0 43.969017 50.751873"
   version="1.1"
   id="svg56"
   inkscape:version="0.92.2 (5c3e80d, 2017-08-06)"
   sodipodi:docname="polygonnode-icon.svg">
  <defs
     id="defs50" />
  <sodipodi:namedview
     id="base"
     pagecolor="#ffffff"
     bordercolor="#666666"
     borderopacity="1.0"
     inkscape:pageopacity="0.0"
     inkscape:pageshadow="2"
     inkscape:zoom="7.9195959"
     inkscape:cx="67.756377"
     inkscape:cy="96.130273"
     inkscape:document-units="mm"
     inkscape:current-layer="layer1"
     showgrid="false"
     inkscape:window-width="2736"
     inkscape:window-height="1779"
     inkscape:window-x="-13"
     inkscape:window-y="-13"
     inkscape:window-maximized="1"
     fit-margin-top="2"
     fit-margin-left="2"
     fit-margin-right="2"
     fit-margin-bottom="2" />
  <metadata
     id="metadata53">
    <rdf:RDF>
      <cc:Work
         rdf:about="">
        <dc:format>image/svg+xml</dc:format>
        <dc:type
           rdf:resource="http://purl.org/dc/dcmitype/StillImage" />
        <dc:title></dc:title>
      </cc:Work>
    </rdf:RDF>
  </metadata>
  <g
     inkscape:label="Layer 1"
     inkscape:groupmode="layer"
     id="layer1"
     transform="translate(-149.61668,-102.29073)">
    <g
       transform="matrix(0.26458333,0,0,0.26458333,148.00882,100.6924)"
       id="Shape_1">
      <g
         id="g29">
        <path
           style="clip-rule:evenodd;fill:#ff6600;fill-rule:evenodd"
           inkscape:connector-curvature="0"
           d="m 110.2,105.2 c 14.6,-11 29,-21.7 43.8,-32.8 v 45.9 c 3.5,2 6.9,4 10.6,6.1 V 57.7 c -1.8,-1.1 -3.7,-2.2 -5.7,-3.3 -20,15 -39.7,29.9 -59.6,44.8 C 92.6,95.4 86.1,91.8 79.5,88 c -3.3,2.5 -6.4,4.8 -9.8,7.4 6.8,3.9 13.1,7.4 19.7,11.2 C 82,112.2 74.9,117.5 67.7,123 58,117.5 48.4,112.1 38.5,106.5 66.1,85.8 93.2,65.3 120.3,44.9 c 6.5,3.8 12.8,7.5 19.1,11.1 3.2,-2.5 6.3,-4.8 9.7,-7.4 -20.2,-11.8 -40,-23.4 -59.8,-35 -19.7,11.5 -39.2,23 -59.3,34.7 4.1,2.3 7.7,4.3 11.3,6.4 16,-9.4 31.9,-18.7 48,-28.1 6.8,4 13.4,7.9 20.4,12 C 92.8,51.5 76.2,64 59.4,76.6 46.1,69.1 33,61.7 19.9,54.3 c -2.1,1.2 -4.1,2.4 -5.8,3.4 -0.8,3.8 -0.5,39.5 0.4,41.1 3.6,-2.7 7.1,-5.3 10.9,-8.1 V 70.3 c 8.2,4.7 16,9.1 24.1,13.7 -0.8,0.7 -1.3,1.1 -1.9,1.5 -10.6,8 -21.2,16 -31.9,23.9 -1.5,1.1 -2,2.3 -2,4.1 0.1,10 0,20 0,30 0,0.8 0.1,1.7 0.2,2.6 1,0.6 2,1.1 3.1,1.8 3.2,-2.4 6.2,-4.7 8.9,-6.7 -0.3,-1.7 -0.6,-2.9 -0.7,-4.1 -0.1,-2.6 0,-5.3 0,-7.9 v -12.8 c 1.2,-0.9 2.3,-1.7 3.5,-2.6 9.6,5.4 19.2,10.8 29.1,16.5 -10.5,7.9 -20.5,15.5 -31,23.4 21.1,12.4 41.8,24.5 62.5,36.6 8.7,-5.1 17.3,-10.2 26.4,-15.5 -4.2,-2.4 -7.7,-4.4 -11.3,-6.4 -5.1,3 -10.1,5.8 -15.1,8.8 -14,-8.2 -27.9,-16.4 -42.1,-24.7 17.9,-13.5 35.4,-26.6 53,-39.9 16.9,9.5 33.5,19 50.6,28.6 -8.6,5 -16.8,9.8 -24.9,14.6 -12.6,-7.1 -25.1,-14.1 -37.6,-21.2 -3.3,2.5 -6.3,4.8 -9.8,7.4 16.1,9.1 31.7,17.9 47.5,26.9 13,-7.6 25.9,-15.1 38.7,-22.6 v -10.2 c -18.1,-10.3 -36.2,-20.5 -54.5,-30.9 z"
           id="path27" />
      </g>
    </g>
  </g>
</svg>
